<svg width="400" height="400" xmlns="http://www.w3.org/2000/svg">
  <defs>
    <radialGradient id="starGlow" cx="50%" cy="50%" r="50%" fx="50%" fy="50%">
      <stop offset="0%" stop-color="white" stop-opacity="0.8"/>
      <stop offset="100%" stop-color="white" stop-opacity="0"/>
    </radialGradient>
  </defs>
  <rect width="100%" height="100%" fill="#020817"/>
  <!-- Small stars -->
  <g fill="white">
    <circle cx="20" cy="30" r="0.6"/>
    <circle cx="60" cy="50" r="0.8"/>
    <circle cx="100" cy="70" r="0.7"/>
    <circle cx="140" cy="90" r="0.5"/>
    <circle cx="180" cy="110" r="0.9"/>
    <circle cx="220" cy="130" r="0.6"/>
    <circle cx="260" cy="150" r="0.8"/>
    <circle cx="300" cy="170" r="0.7"/>
    <circle cx="340" cy="190" r="0.5"/>
    <circle cx="380" cy="210" r="0.9"/>
    <circle cx="40" cy="230" r="0.6"/>
    <circle cx="80" cy="250" r="0.8"/>
    <circle cx="120" cy="270" r="0.7"/>
    <circle cx="160" cy="290" r="0.5"/>
    <circle cx="200" cy="310" r="0.9"/>
    <circle cx="240" cy="330" r="0.6"/>
    <circle cx="280" cy="350" r="0.8"/>
    <circle cx="320" cy="370" r="0.7"/>
    <circle cx="360" cy="390" r="0.5"/>
  </g>
  <!-- Medium stars -->
  <g fill="white">
    <circle cx="50" cy="40" r="1.2"/>
    <circle cx="150" cy="120" r="1.3"/>
    <circle cx="250" cy="200" r="1.2"/>
    <circle cx="350" cy="280" r="1.4"/>
    <circle cx="90" cy="360" r="1.5"/>
    <circle cx="190" cy="80" r="1.3"/>
    <circle cx="290" cy="160" r="1.4"/>
    <circle cx="390" cy="240" r="1.2"/>
  </g>
  <!-- Larger glowing stars -->
  <g>
    <circle cx="70" cy="100" r="2" fill="white"/>
    <circle cx="70" cy="100" r="5" fill="url(#starGlow)"/>
    
    <circle cx="200" cy="250" r="2.2" fill="white"/>
    <circle cx="200" cy="250" r="6" fill="url(#starGlow)"/>
    
    <circle cx="330" cy="80" r="2.5" fill="white"/>
    <circle cx="330" cy="80" r="7" fill="url(#starGlow)"/>
    
    <circle cx="120" cy="320" r="2.3" fill="white"/>
    <circle cx="120" cy="320" r="6" fill="url(#starGlow)"/>
  </g>
  <!-- Distant nebula/galaxy effect -->
  <ellipse cx="300" cy="300" rx="80" ry="40" fill="#6030A0" fill-opacity="0.15" transform="rotate(30 300 300)"/>
  <ellipse cx="100" cy="200" rx="60" ry="25" fill="#8050E0" fill-opacity="0.1" transform="rotate(-15 100 200)"/>
</svg> 